<?xml version="1.0" encoding="UTF-8"?>
<svg version="1.1" xmlns="http://www.w3.org/2000/svg" width="500" height="346">
<path d="M0 0 C1.018958 -0.00297112 2.037916 -0.00594224 3.08775151 -0.0090034 C6.495043 -0.01766037 9.90229922 -0.01919613 13.30960083 -0.02069092 C15.75592625 -0.02532134 18.20225096 -0.0303463 20.64857483 -0.03573608 C27.29165322 -0.04884344 33.93471789 -0.05533949 40.577806 -0.05974674 C44.73305608 -0.0625159 48.88830387 -0.06675457 53.0435524 -0.07125092 C64.56796815 -0.08344134 76.09238207 -0.09373974 87.61680412 -0.09712601 C88.35365214 -0.09734557 89.09050017 -0.09756514 89.84967691 -0.09779136 C90.58820935 -0.09800964 91.32674179 -0.09822791 92.08765399 -0.09845281 C93.58399956 -0.09889626 95.08034512 -0.09934282 96.57669067 -0.09979248 C97.31891719 -0.10001391 98.06114371 -0.10023534 98.82586195 -0.10046348 C110.83199987 -0.10440504 122.83807687 -0.12184041 134.8441913 -0.145152 C147.19666295 -0.1689406 159.54910414 -0.18133133 171.90159905 -0.18249393 C178.82645051 -0.18340671 185.75122265 -0.18905775 192.67605209 -0.20731354 C199.19811336 -0.2244478 205.72006482 -0.22591137 212.24214363 -0.21717453 C214.6248229 -0.21640829 217.00751049 -0.22069174 219.39016914 -0.23063278 C257.62261188 -0.38068271 292.36085329 10.92011363 320.74368286 37.14044189 C321.50890259 37.83991943 321.50890259 37.83991943 322.2895813 38.55352783 C341.57427509 56.37077505 354.32236625 79.14452226 361.49368286 104.26544189 C361.7919397 105.30257324 361.7919397 105.30257324 362.09622192 106.36065674 C371.31370254 140.36098618 365.92974028 178.26198227 348.57498169 208.72369385 C340.68874428 222.20911513 340.68874428 222.20911513 336.74368286 227.14044189 C336.08368286 227.14044189 335.42368286 227.14044189 334.74368286 227.14044189 C334.37243286 227.98542236 334.37243286 227.98542236 333.99368286 228.84747314 C322.49357595 249.94298176 294.65314879 265.46083528 272.74368286 273.14044189 C271.01311646 273.75532471 271.01311646 273.75532471 269.24758911 274.38262939 C250.91192146 280.64878102 232.75061176 281.58475503 213.50564575 281.52862549 C211.13138082 281.53270069 208.75711779 281.53804784 206.38285828 281.54455566 C199.99023428 281.55812301 193.59775707 281.55297447 187.20513082 281.54341841 C183.19920072 281.53885989 179.19330597 281.53910479 175.18737602 281.54188919 C174.51853665 281.54234889 173.84969727 281.54280859 173.16059003 281.54328222 C171.8010658 281.54424157 170.44154157 281.54521422 169.08201735 281.54619999 C156.38736404 281.55471783 143.69277612 281.54497711 130.99813353 281.52879889 C120.15099552 281.5154021 109.3039539 281.51772557 98.45681763 281.53155518 C85.80344816 281.54768053 73.15013576 281.55389098 60.49675745 281.54471838 C59.14244013 281.54376293 57.7881228 281.54281981 56.43380547 281.54188919 C55.76778157 281.54142636 55.10175767 281.54096354 54.41555123 281.54048669 C49.76547043 281.53791732 45.11542738 281.54237318 40.4653492 281.54932785 C34.18357125 281.55806838 27.90197321 281.55184761 21.62021446 281.53464508 C19.33070803 281.53071761 17.04118614 281.53174906 14.7516861 281.53843307 C-3.34956514 281.5863587 -21.15344912 280.61611821 -38.38131714 274.57794189 C-39.37921265 274.2364209 -40.37710815 273.8948999 -41.40524292 273.54302979 C-54.70945883 268.79456264 -67.07587895 261.77028269 -78.25631714 253.14044189 C-79.12127808 252.47786377 -79.98623901 251.81528564 -80.87741089 251.13262939 C-107.42076579 230.12384636 -124.5320359 201.94811067 -132.25631714 169.14044189 C-132.45209351 168.32083984 -132.64786987 167.50123779 -132.84957886 166.65679932 C-134.63086676 158.22627034 -134.65494993 149.77833521 -134.63131714 141.20294189 C-134.63044098 140.42765137 -134.62956482 139.65236084 -134.62866211 138.85357666 C-134.49881712 103.99940703 -121.85051029 73.66754966 -99.25631714 47.14044189 C-98.64401245 46.38118408 -98.03170776 45.62192627 -97.40084839 44.83966064 C-91.57305322 37.84382124 -84.53110136 32.53469866 -77.25631714 27.14044189 C-76.36428589 26.47786377 -75.47225464 25.81528564 -74.55319214 25.13262939 C-52.67340949 9.39330188 -27.09664555 -0.02485466 0 0 Z M-61.25631714 41.14044189 C-61.25631714 41.80044189 -61.25631714 42.46044189 -61.25631714 43.14044189 C-62.01944214 43.42919189 -62.78256714 43.71794189 -63.56881714 44.01544189 C-66.40661021 45.10313203 -66.40661021 45.10313203 -69.25631714 47.14044189 C-69.25631714 47.80044189 -69.25631714 48.46044189 -69.25631714 49.14044189 C-69.78998901 49.35184814 -70.32366089 49.56325439 -70.87350464 49.78106689 C-91.89219732 61.77205878 -104.1359015 90.03225749 -110.25631714 112.14044189 C-115.17982039 132.07507723 -114.36431024 152.35602156 -109.25631714 172.14044189 C-109.08503296 172.8088208 -108.91374878 173.47719971 -108.73727417 174.16583252 C-104.55725332 189.76160677 -96.2886534 206.22837192 -85.25631714 218.14044189 C-84.59631714 218.14044189 -83.93631714 218.14044189 -83.25631714 218.14044189 C-82.86379761 219.01829346 -82.86379761 219.01829346 -82.46334839 219.91387939 C-76.14256076 231.57358473 -60.76840582 240.39260875 -49.25631714 246.14044189 C-48.30112183 246.65348877 -47.34592651 247.16653564 -46.36178589 247.69512939 C-26.16394987 258.33671534 -5.19750808 259.59260166 17.13772583 259.54449463 C19.55272739 259.5502086 21.96772626 259.5571768 24.38272095 259.56529236 C30.22152472 259.58128037 36.06020457 259.58334771 41.89902554 259.57807945 C46.65199531 259.57401222 51.40493347 259.57551132 56.15790176 259.58082771 C56.83840229 259.58157614 57.51890281 259.58232456 58.22002456 259.58309566 C59.6031456 259.58462738 60.98626662 259.58616573 62.36938764 259.58771063 C75.29385962 259.60138859 88.2182708 259.59603114 101.14274134 259.58452541 C112.92382954 259.57459704 124.70476059 259.58753522 136.48582457 259.61145961 C148.63297407 259.63593834 160.78005065 259.6454371 172.92722428 259.63880688 C179.72680683 259.63533417 186.5262687 259.63741652 193.32583237 259.65505791 C199.72334684 259.6706258 206.12056329 259.66646288 212.51806641 259.64775276 C214.85153271 259.64409405 217.1850216 259.64709489 219.51846695 259.65763855 C252.34616577 259.7945254 283.2127699 251.02185522 307.33352661 227.62872314 C333.13982224 200.98591875 344.95009981 170.33916769 344.72024536 133.37091064 C343.09085788 100.04605716 326.33747206 71.75823488 302.68118286 49.07794189 C275.25217608 25.56736465 242.37128919 20.82151914 207.52713013 20.86578369 C205.23858475 20.86142682 202.95004083 20.85624045 200.66149902 20.85029602 C194.49412177 20.83700141 188.32680616 20.83631652 182.15941739 20.83885932 C176.99077334 20.83993529 171.82214144 20.83502988 166.65350002 20.8302539 C153.75595728 20.81856182 140.85845356 20.81936489 127.96090918 20.82581071 C116.80319081 20.83097916 105.64555977 20.81971876 94.48785866 20.80071249 C82.98143597 20.78126507 71.4750648 20.77338031 59.96862453 20.77683574 C53.52847071 20.77864031 47.08839692 20.77609517 40.6482563 20.7621212 C34.58976975 20.74946479 28.53145703 20.75156032 22.47297287 20.76453209 C20.26325227 20.76688028 18.05351913 20.76422713 15.84381294 20.75590897 C-12.98868033 20.65528619 -36.3265226 26.73442163 -61.25631714 41.14044189 Z " fill="#336599" transform="translate(134.25631713867188,-0.14044189453125)"/>
<path d="M0 0 C1.08584129 -0.00262848 1.08584129 -0.00262848 2.19361877 -0.00531006 C4.59728364 -0.00972558 7.00087534 -0.00678888 9.40454102 -0.00341797 C11.07926955 -0.00409175 12.75399799 -0.0050624 14.4287262 -0.00631714 C17.9485873 -0.00779424 21.46842309 -0.00564159 24.98828125 -0.00097656 C29.47341432 0.00468125 33.95848703 0.00146708 38.44361782 -0.00454903 C41.90886375 -0.00818819 45.37409574 -0.00700007 48.83934212 -0.00442123 C50.49094716 -0.00375915 52.14255352 -0.00455496 53.79415703 -0.00690079 C82.83489668 -0.03905598 82.83489668 -0.03905598 92.04516602 7.92236328 C99.26930994 15.50998614 100.42365878 23.90233154 100.31152344 34.06518555 C100.31218056 35.64723534 100.31218056 35.64723534 100.31285095 37.26124573 C100.31077469 40.71879116 100.28749823 44.17584092 100.26391602 47.63330078 C100.25831594 50.04182165 100.25404779 52.45034595 100.25105286 54.85887146 C100.23963658 61.17670237 100.21019696 67.49432409 100.17694092 73.81207275 C100.14617067 80.26742728 100.13253267 86.72281583 100.11743164 93.17822266 C100.08532425 105.82871964 100.03258247 118.47900691 99.97094727 131.12939453 C88.09094727 131.12939453 76.21094727 131.12939453 63.97094727 131.12939453 C63.94121826 126.88950684 63.94121826 126.88950684 63.91088867 122.56396484 C63.84402596 113.23203217 63.7663858 103.90021168 63.68342018 94.56840897 C63.63344294 88.90972604 63.58711292 83.25106191 63.54907227 77.59228516 C63.51223766 72.13276397 63.46588249 66.67339952 63.41288376 61.21401215 C63.39433014 59.12961319 63.37922577 57.04518063 63.3676033 54.96073151 C63.35075757 52.04445799 63.32172629 49.12854421 63.28979492 46.21240234 C63.28763474 45.34781403 63.28547455 44.48322571 63.2832489 43.59243774 C63.27208542 42.79600861 63.26092194 41.99957947 63.24942017 41.17901611 C63.24388941 40.48951496 63.23835865 39.80001381 63.23266029 39.08961868 C62.92051467 36.75165561 62.176718 35.14752001 60.97094727 33.12939453 C52.94938506 27.4845915 33.21086653 29.40069537 26.97094727 29.12939453 C26.97094727 62.78939453 26.97094727 96.44939453 26.97094727 131.12939453 C15.09094727 131.12939453 3.21094727 131.12939453 -9.02905273 131.12939453 C-9.02905273 88.22939453 -9.02905273 45.32939453 -9.02905273 1.12939453 C-6.0425659 -0.36384889 -3.33135923 0.00201934 0 0 Z " fill="#326599" transform="translate(78.029052734375,82.87060546875)"/>
<path d="M0 0 C5.10863896 -0.0246501 10.21724359 -0.04283607 15.32592773 -0.05493164 C17.06519168 -0.05997204 18.80445136 -0.0668043 20.54370117 -0.07543945 C23.03825937 -0.08751792 25.53276173 -0.09323108 28.02734375 -0.09765625 C28.80963852 -0.10281754 29.59193329 -0.10797882 30.39793396 -0.11329651 C32.26567114 -0.11349226 34.13329204 -0.06199694 36 0 C37 1 37 1 37.10679626 2.97134399 C37.09441673 4.26870987 37.09441673 4.26870987 37.08178711 5.59228516 C37.0752562 6.57065338 37.06872528 7.54902161 37.06199646 8.55703735 C37.05056107 9.62360565 37.03912567 10.69017395 37.02734375 11.7890625 C37.0146892 14.0325505 37.00232886 16.27604017 36.99023438 18.51953125 C36.96547359 22.0679237 36.93758287 25.61622995 36.90405273 29.16455078 C36.87374845 32.58106014 36.85603625 35.99746111 36.83984375 39.4140625 C36.82638412 40.46848541 36.8129245 41.52290833 36.79905701 42.60928345 C36.58511013 51.91572076 36.58511013 51.91572076 40.75 59.875 C45.25868802 62.12934401 50.22744125 62.13205082 55.18896484 62.20532227 C56.38975677 62.22526749 57.59054871 62.24521271 58.82772827 62.26576233 C60.74991684 62.29083107 60.74991684 62.29083107 62.7109375 62.31640625 C64.04758304 62.33700309 65.38422246 62.35800024 66.72085571 62.37937927 C70.22242247 62.43431826 73.72404525 62.48385056 77.22570801 62.53222656 C80.80546996 62.58264861 84.38515254 62.63817666 87.96484375 62.69335938 C94.97650083 62.80107469 101.98820574 62.90031629 109 63 C108.67 52.11 108.34 41.22 108 30 C91.17 30 74.34 30 57 30 C57 20.1 57 10.2 57 0 C86.04 0 115.08 0 145 0 C145 30.36 145 60.72 145 92 C116.41239336 92.08032734 116.41239336 92.08032734 102.2532177 92.10050774 C94.60710021 92.11157421 86.96102655 92.12560602 79.31494141 92.15087891 C72.61058298 92.17302841 65.90628177 92.18457931 59.20188522 92.18975449 C56.6479251 92.19344118 54.09396748 92.20064032 51.54002762 92.21146011 C47.95452579 92.22604185 44.36921826 92.22797512 40.78369141 92.22705078 C39.21059204 92.23783661 39.21059204 92.23783661 37.60571289 92.24884033 C26.82163573 92.21888548 15.39843925 90.92697531 7.14453125 83.28125 C-0.63712562 73.90483383 -0.42479279 62.05762362 -0.29296875 50.48828125 C-0.28735947 49.02427103 -0.28309568 47.5602551 -0.28010559 46.09623718 C-0.26876143 42.28052671 -0.23938706 38.46516986 -0.20599365 34.64959717 C-0.17506503 30.74105612 -0.16155203 26.8324568 -0.14648438 22.92382812 C-0.11450487 15.2823925 -0.0634385 7.64124618 0 0 Z " fill="#35679A" transform="translate(186,147)"/>
<path d="M0 0 C29.83714299 -0.12049101 29.83714299 -0.12049101 44.61097717 -0.1507616 C52.59031553 -0.16736395 60.56955945 -0.18841775 68.54882812 -0.22631836 C74.86792862 -0.25631893 81.18695774 -0.27559817 87.50612748 -0.28226548 C90.84888271 -0.28615986 94.19127293 -0.29684355 97.53399277 -0.31719017 C101.27522501 -0.33905133 105.0160381 -0.34196321 108.75732422 -0.34057617 C110.40055412 -0.35675491 110.40055412 -0.35675491 112.07698059 -0.3732605 C121.4421229 -0.33583119 129.82122953 1.15639529 137.2421875 7.1953125 C143.86149525 13.99113513 145.13087687 21.63525693 145.11352539 30.83154297 C145.11367142 31.48590836 145.11381744 32.14027374 145.1139679 32.81446838 C145.11327647 34.95707626 145.10552052 37.09959499 145.09765625 39.2421875 C145.09578933 40.73576815 145.09436672 42.22934942 145.09336853 43.72293091 C145.08956494 47.63885207 145.07975324 51.55473568 145.06866455 55.47064209 C145.05659733 60.17721786 145.05203791 64.88380623 145.04621124 69.59039307 C145.0365402 76.72695477 145.0173686 83.86343419 145 91 C133.12 91 121.24 91 109 91 C108.96261719 87.15988281 108.92523438 83.31976563 108.88671875 79.36328125 C108.84050505 75.64325266 108.78927064 71.92332474 108.73754883 68.20336914 C108.70429889 65.61847046 108.67626723 63.03349916 108.65356445 60.44848633 C108.62002073 56.73226991 108.56770272 53.01671899 108.51171875 49.30078125 C108.50532883 48.14540359 108.4989389 46.99002594 108.49235535 45.79963684 C108.47256119 44.71889389 108.45276703 43.63815094 108.43237305 42.5246582 C108.42126999 41.57645706 108.41016693 40.62825592 108.39872742 39.65132141 C107.91539606 36.43742959 106.9551183 34.5868606 105 32 C101.7095896 29.61890769 98.55805745 29.72741927 94.57910156 29.68115234 C93.27805481 29.66128265 91.97700806 29.64141296 90.63653564 29.62094116 C89.22123382 29.60906559 87.8059302 29.59740268 86.390625 29.5859375 C84.93901472 29.56722203 83.48741527 29.54764833 82.03582764 29.5272522 C78.22188713 29.47596478 74.40791138 29.43632108 70.59381104 29.39910889 C66.01398828 29.35199996 61.43434 29.2904167 56.85466003 29.23126221 C49.90317725 29.14309119 42.9517272 29.0732979 36 29 C36 49.46 36 69.92 36 91 C24.12 91 12.24 91 0 91 C0 60.97 0 30.94 0 0 Z " fill="#336599" transform="translate(186,42)"/>
<path d="M0 0 C1.47583955 0.0001591 2.95168467 0.00585225 4.42749023 0.01586914 C5.20293686 0.01728409 5.97838348 0.01869904 6.77732849 0.02015686 C9.26361893 0.02577194 11.74982059 0.03832693 14.23608398 0.05102539 C15.91772331 0.05603845 17.59936405 0.06060169 19.28100586 0.06469727 C23.41189965 0.07574626 27.54272674 0.09302094 31.67358398 0.11352539 C31.67945023 0.76641037 31.68531647 1.41929535 31.69136047 2.09196472 C31.75531033 8.88923177 31.83973461 15.68602606 31.93603516 22.48291016 C31.96928287 25.01930507 31.99731523 27.55577395 32.02001953 30.09228516 C32.05356739 33.73900867 32.1058855 37.3850545 32.16186523 41.03149414 C32.16825516 42.16499802 32.17464508 43.29850189 32.18122864 44.46635437 C32.21091988 46.05743767 32.21091988 46.05743767 32.24121094 47.68066406 C32.25786552 49.07631844 32.25786552 49.07631844 32.27485657 50.50016785 C32.75681938 53.65907067 33.78517038 55.55130294 35.67358398 58.11352539 C42.06513868 60.9717515 49.2177477 60.55735905 56.11108398 60.73852539 C60.25670898 60.86227539 64.40233398 60.98602539 68.67358398 61.11352539 C68.67358398 70.68352539 68.67358398 80.25352539 68.67358398 90.11352539 C62.60852906 90.15968649 56.54409517 90.19943681 50.47900391 90.22338867 C48.42006351 90.23338431 46.36113707 90.24698531 44.30224609 90.2644043 C41.32572969 90.28893801 38.34940257 90.30007314 35.37280273 90.30883789 C34.46713058 90.31916046 33.56145844 90.32948303 32.62834167 90.34011841 C22.75916106 90.34181241 11.45264086 89.62989786 3.95483398 82.47290039 C-2.50178882 75.19337468 -4.44899958 69.22695155 -4.45581055 59.48144531 C-4.45896271 58.18377731 -4.46211487 56.88610931 -4.46536255 55.54911804 C-4.46357344 54.14740973 -4.46152266 52.74570172 -4.45922852 51.34399414 C-4.45990261 49.89764896 -4.46087352 48.4513039 -4.46212769 47.00495911 C-4.46359734 43.98490309 -4.46147212 40.96487677 -4.45678711 37.94482422 C-4.45106461 34.06640124 -4.45438928 30.18804709 -4.46035957 26.30962658 C-4.4639632 23.32861303 -4.46282797 20.34761597 -4.46023178 17.36660194 C-4.45956328 15.93560083 -4.46038826 14.50459824 -4.46271133 13.07359886 C-4.46523731 11.08194379 -4.46070794 9.09028347 -4.45581055 7.09863281 C-4.45501495 5.96423264 -4.45421936 4.82983246 -4.45339966 3.66105652 C-4.26102479 -0.19834575 -3.9718039 0.13555147 0 0 Z " fill="#336599" transform="translate(345.326416015625,123.886474609375)"/>
<path d="M0 0 C0.78807541 0.00202423 1.57615082 0.00404846 2.3881073 0.00613403 C3.21409424 0.00438171 4.04008118 0.00262939 4.89109802 0.00082397 C7.63564625 -0.00359587 10.38013062 -0.00065582 13.12467957 0.00271606 C15.02418022 0.002043 16.92368079 0.00107295 18.82318115 -0.00018311 C22.81048907 -0.00166031 26.79777463 0.00049496 30.78507996 0.00515747 C35.90449271 0.0108509 41.023853 0.00757834 46.14326382 0.00158501 C50.06794634 -0.00202329 53.99261637 -0.00088071 57.91729927 0.0017128 C59.80521208 0.00238152 61.69312602 0.00155554 63.58103752 -0.00076675 C66.21727898 -0.00329724 68.85343475 0.00055314 71.4896698 0.00613403 C72.27572098 0.0041098 73.06177216 0.00208557 73.87164307 0 C79.27505912 0.02126522 79.27505912 0.02126522 81.50358582 1.13552856 C81.50358582 10.70552856 81.50358582 20.27552856 81.50358582 30.13552856 C52.46358582 30.13552856 23.42358582 30.13552856 -6.49641418 30.13552856 C-6.49641418 0.02566774 -6.49641418 0.02566774 0 0 Z " fill="#37699C" transform="translate(347.4964141845703,82.86447143554688)"/>
<path d="M0 0 C9.9 0 19.8 0 30 0 C30 14.85 30 29.7 30 45 C20.1 45 10.2 45 0 45 C0 30.15 0 15.3 0 0 Z " fill="#326498" transform="translate(243,88)"/>
<path d="M0 0 C4.87627303 3.69377682 6.57008985 8.64130753 7.75 14.43359375 C8.70775793 25.54358571 7.84251458 36.76028804 1.0625 46.05859375 C-4.41677732 50.30782922 -8.65798274 51.25694029 -15.4375 51.30859375 C-16.11425781 51.32921875 -16.79101562 51.34984375 -17.48828125 51.37109375 C-20.26968969 51.3930378 -22.43864148 51.33177818 -24.90625 49.98046875 C-26.48562461 47.03708879 -26.12257421 44.32823805 -25.9375 41.05859375 C-24.90109375 41.15398437 -23.8646875 41.249375 -22.796875 41.34765625 C-21.42713271 41.46023781 -20.05733807 41.57218363 -18.6875 41.68359375 C-18.00558594 41.74804688 -17.32367188 41.8125 -16.62109375 41.87890625 C-11.43829485 42.2902696 -11.43829485 42.2902696 -6.9375 40.05859375 C-5.15063946 36.54868911 -3.9375 34.01734771 -3.9375 30.05859375 C-5.175 30.55359375 -5.175 30.55359375 -6.4375 31.05859375 C-12.01780987 32.652968 -16.030995 33.06580394 -21.25 30.30859375 C-25.1470612 27.04593786 -27.55101618 24.27084453 -28.17578125 19.078125 C-28.37391618 13.1862179 -27.32725446 8.92791531 -23.9375 4.05859375 C-17.59499215 -2.2839141 -8.21756541 -3.992809 0 0 Z M-15.25 8.49609375 C-17.68264066 12.19010365 -17.62110626 15.74233559 -16.9375 20.05859375 C-15.9475 21.54359375 -15.9475 21.54359375 -14.9375 23.05859375 C-12.83668703 23.49822929 -12.83668703 23.49822929 -10.5 23.37109375 C-9.32630859 23.36529297 -9.32630859 23.36529297 -8.12890625 23.359375 C-5.64889896 23.18137494 -5.64889896 23.18137494 -2.9375 21.05859375 C-3.08795623 14.3926918 -3.08795623 14.3926918 -5.6875 8.43359375 C-9.38076166 6.17660051 -11.57954275 6.21445816 -15.25 8.49609375 Z " fill="#38689A" transform="translate(333.9375,294.94140625)"/>
<path d="M0 0 C1.11697266 -0.00128906 2.23394531 -0.00257813 3.38476562 -0.00390625 C4.55587891 -0.00003906 5.72699219 0.00382812 6.93359375 0.0078125 C8.10857422 0.00394531 9.28355469 0.00007813 10.49414062 -0.00390625 C12.16766602 -0.00197266 12.16766602 -0.00197266 13.875 0 C14.90439697 0.00112793 15.93379395 0.00225586 16.99438477 0.00341797 C19.37109375 0.1328125 19.37109375 0.1328125 20.37109375 1.1328125 C20.37109375 4.1028125 20.37109375 7.0728125 20.37109375 10.1328125 C14.10109375 10.1328125 7.83109375 10.1328125 1.37109375 10.1328125 C1.37109375 13.4328125 1.37109375 16.7328125 1.37109375 20.1328125 C2.08394531 20.09800781 2.79679687 20.06320312 3.53125 20.02734375 C9.64110177 19.85465615 14.09999578 19.90560966 19.37109375 23.1328125 C22.916766 26.76939943 23.64786583 29.7038231 23.80859375 34.6328125 C23.52386847 41.0089331 21.87864732 45.02104009 17.30859375 49.5078125 C12.85199873 52.69348361 8.41494002 52.67949581 3.12109375 52.6953125 C1.93181274 52.69893799 1.93181274 52.69893799 0.71850586 52.70263672 C-2.689739 52.60497927 -5.08722962 52.40532265 -8.16015625 50.859375 C-10.75346696 47.81085549 -9.88192002 44.99127243 -9.62890625 41.1328125 C-8.88640625 41.2978125 -8.14390625 41.4628125 -7.37890625 41.6328125 C-4.0345744 42.07872341 -0.81073277 42.33504363 2.55859375 42.4453125 C4.09580078 42.50138672 4.09580078 42.50138672 5.6640625 42.55859375 C8.46786652 42.38211153 8.46786652 42.38211153 10.23828125 40.33984375 C11.96512534 36.97547509 11.36086625 34.69599349 10.37109375 31.1328125 C7.00245971 28.65446031 3.74088841 28.95672642 -0.31640625 29.0703125 C-2.41998772 29.12413049 -4.52473673 29.1533553 -6.62890625 29.1328125 C-7.62890625 28.1328125 -7.62890625 28.1328125 -7.74243164 25.54077148 C-7.73719482 24.41485596 -7.73195801 23.28894043 -7.7265625 22.12890625 C-7.72333984 20.91396484 -7.72011719 19.69902344 -7.71679688 18.44726562 C-7.70841797 17.16787109 -7.70003906 15.88847656 -7.69140625 14.5703125 C-7.68689453 13.28705078 -7.68238281 12.00378906 -7.67773438 10.68164062 C-7.6659017 7.49865228 -7.64941693 4.31575488 -7.62890625 1.1328125 C-4.98062446 -0.1913284 -2.96210513 0.00324208 0 0 Z " fill="#366799" transform="translate(397.62890625,293.8671875)"/>
<path d="M0 0 C1.9375 1.5 1.9375 1.5 2.9375 2.5 C2.97842937 4.83297433 2.97991723 7.16705225 2.9375 9.5 C-0.18540635 9.01421457 -3.05830359 8.5013988 -6.0625 7.5 C-9.60428598 7.24996036 -9.60428598 7.24996036 -13.0625 7.5 C-15.39744708 9.37120618 -15.39744708 9.37120618 -15.109375 12.40625 C-14.33206997 15.76604175 -14.33206997 15.76604175 -11.078125 17.40625 C-9.8327073 17.9600634 -8.57677633 18.4907065 -7.3125 19 C-1.763243 21.29108328 1.52755 23.57101497 4.9375 28.5 C6.36471876 32.32784017 6.43853165 35.92532909 5.19921875 39.8203125 C4.23777693 41.89168137 3.34892872 43.70363618 1.9375 45.5 C0.4525 45.995 0.4525 45.995 -1.0625 46.5 C-1.0625 47.16 -1.0625 47.82 -1.0625 48.5 C-8.41424169 51.27904694 -16.31390065 51.89778281 -23.75 49.125 C-26.0625 47.5 -26.0625 47.5 -28.0625 45.5 C-28.39583333 40.16666667 -28.39583333 40.16666667 -27.0625 37.5 C-26.299375 37.809375 -25.53625 38.11875 -24.75 38.4375 C-20.94838475 39.94046417 -18.0717985 40.63699352 -14 40.625 C-12.68322266 40.62886719 -12.68322266 40.62886719 -11.33984375 40.6328125 C-9.03051734 40.64833424 -9.03051734 40.64833424 -7.0625 39.5 C-7.0625 37.19 -7.0625 34.88 -7.0625 32.5 C-7.94292969 32.05269531 -8.82335937 31.60539062 -9.73046875 31.14453125 C-11.47263672 30.23767578 -11.47263672 30.23767578 -13.25 29.3125 C-14.39855469 28.72082031 -15.54710938 28.12914062 -16.73046875 27.51953125 C-20.81590648 25.04336325 -23.93699529 22.34173497 -26.4375 18.25 C-27.54402359 13.38129621 -27.38761854 8.85230775 -24.8984375 4.43359375 C-18.70681083 -3.49632384 -8.76810821 -4.29458361 0 0 Z " fill="#376799" transform="translate(103.0625,295.5)"/>
<path d="M0 0 C3.4522497 2.17641829 5.63470006 4.13165018 7 8 C8.30070549 13.87230275 8.22026415 19.76565926 8.25 25.75 C8.270625 26.80316406 8.29125 27.85632813 8.3125 28.94140625 C8.32023437 30.44767578 8.32023437 30.44767578 8.328125 31.984375 C8.34214355 33.35674316 8.34214355 33.35674316 8.35644531 34.75683594 C8.23881836 35.49708008 8.12119141 36.23732422 8 37 C4.34346173 39.43769218 2.30999899 39.23944439 -2 39 C-3.72587545 37.27412455 -3.21108081 34.92917882 -3.28125 32.57421875 C-3.31863281 31.46755859 -3.35601562 30.36089844 -3.39453125 29.22070312 C-3.44673828 27.47176758 -3.44673828 27.47176758 -3.5 25.6875 C-3.56898138 23.39961754 -3.64174342 21.11184515 -3.71875 18.82421875 C-3.74904297 17.80416748 -3.77933594 16.78411621 -3.81054688 15.7331543 C-3.9758753 13.34803608 -4.32612019 11.28525741 -5 9 C-9.60356262 9.30874868 -9.60356262 9.30874868 -13.69848633 11.18286133 C-15.52322554 13.73051354 -15.43266151 15.64686359 -15.51171875 18.76171875 C-15.54716797 19.87998047 -15.58261719 20.99824219 -15.61914062 22.15039062 C-15.65297852 23.90125977 -15.65297852 23.90125977 -15.6875 25.6875 C-15.72166016 26.86634766 -15.75582031 28.04519531 -15.79101562 29.25976562 C-15.87357925 32.17308225 -15.94270322 35.08609466 -16 38 C-19.21451269 39.60725635 -22.43612536 39.05748185 -26 39 C-27.55043334 35.89913331 -27.1420075 32.62099234 -27.1328125 29.21875 C-27.13376923 28.44946167 -27.13472595 27.68017334 -27.13571167 26.88757324 C-27.13639254 25.26017169 -27.13454473 23.63276743 -27.13037109 22.00537109 C-27.1250215 19.51002927 -27.13031919 17.01486745 -27.13671875 14.51953125 C-27.13605795 12.94010377 -27.13477675 11.3606764 -27.1328125 9.78125 C-27.13483673 9.0322644 -27.13686096 8.28327881 -27.13894653 7.51159668 C-27.11496122 2.22992243 -27.11496122 2.22992243 -26 0 C-23.36 0 -20.72 0 -18 0 C-17.67 1.32 -17.34 2.64 -17 4 C-16.071875 3.360625 -15.14375 2.72125 -14.1875 2.0625 C-9.28745339 -1.1081184 -5.59631339 -1.42093895 0 0 Z " fill="#3E6D9E" transform="translate(161,307)"/>
<path d="M0 0 C3.49830268 1.826114 5.95489921 3.80653547 7.9375 7.25 C9.11957543 11.52365731 9.10118921 15.77721696 8.75 20.1875 C7.75 21.1875 7.75 21.1875 5.52514648 21.30102539 C4.56680908 21.29578857 3.60847168 21.29055176 2.62109375 21.28515625 C1.06938477 21.28032227 1.06938477 21.28032227 -0.51367188 21.27539062 C-1.60228516 21.26701172 -2.69089844 21.25863281 -3.8125 21.25 C-5.4512207 21.24323242 -5.4512207 21.24323242 -7.12304688 21.23632812 C-9.83208495 21.22449826 -12.54101599 21.20801543 -15.25 21.1875 C-13.73134786 25.48638613 -13.73134786 25.48638613 -11.25 29.1875 C-5.17976549 29.54457262 0.77017809 29.25057945 6.75 28.1875 C7.4375 30.4375 7.4375 30.4375 7.75 33.1875 C6.01635169 36.30806696 5.19004627 37.04081791 1.75 38.1875 C-14.68377392 39.4671042 -14.68377392 39.4671042 -20.8359375 34.68359375 C-22.99939949 32.39462706 -24.18396853 30.13476348 -25.25 27.1875 C-25.476875 26.56875 -25.70375 25.95 -25.9375 25.3125 C-26.9530054 18.40706329 -26.25438095 12.49790657 -23.25 6.1875 C-17.35945889 -1.33930253 -8.75736499 -4.16255009 0 0 Z M-13.625 8.5 C-15.50870967 11.09193497 -15.50870967 11.09193497 -15.25 14.1875 C-10.63 14.1875 -6.01 14.1875 -1.25 14.1875 C-1.58 12.2075 -1.91 10.2275 -2.25 8.1875 C-6.59817724 5.28871517 -9.72460846 4.70225035 -13.625 8.5 Z " fill="#3A6A9B" transform="translate(234.25,307.8125)"/>
<path d="M0 0 C0 14.19 0 28.38 0 43 C2.97 43 5.94 43 9 43 C10.125 48.625 10.125 48.625 9 52 C-0.9 52 -10.8 52 -21 52 C-22 45 -22 45 -21 43 C-17.7 43 -14.4 43 -11 43 C-11.33 32.77 -11.66 22.54 -12 12 C-14.31 13.32 -16.62 14.64 -19 16 C-19.99 15.67 -20.98 15.34 -22 15 C-22.3125 12.25 -22.3125 12.25 -22 9 C-20 6.9375 -20 6.9375 -17 5 C-16.40703125 4.55269531 -15.8140625 4.10539062 -15.203125 3.64453125 C-14.23632812 2.95423828 -14.23632812 2.95423828 -13.25 2.25 C-12.65703125 1.82203125 -12.0640625 1.3940625 -11.453125 0.953125 C-9 0 -9 0 0 0 Z " fill="#3A689A" transform="translate(291,294)"/>
<path d="M0 0 C4.5206339 -0.07406517 9.040916 -0.12856045 13.56201172 -0.16479492 C15.10048574 -0.17989711 16.63891661 -0.20038046 18.17724609 -0.22631836 C20.38650141 -0.26264074 22.59518848 -0.27971119 24.8046875 -0.29296875 C25.83914505 -0.31619453 25.83914505 -0.31619453 26.89450073 -0.33988953 C28.83544922 -0.34057617 28.83544922 -0.34057617 32 0 C34 3 34 3 33.82958984 6.16577148 C32.89342057 10.49259268 31.46299485 14.29085881 29.7265625 18.34765625 C29.40215179 19.12257919 29.07774109 19.89750214 28.74349976 20.69590759 C27.7116271 23.1547298 26.66827137 25.60849605 25.625 28.0625 C24.93158529 29.71389628 24.23887028 31.36558655 23.546875 33.01757812 C22.87824077 34.60703878 22.20899046 36.19624044 21.5390625 37.78515625 C21.22957672 38.51968521 20.92009094 39.25421417 20.60122681 40.01100159 C18.86854431 44.08330803 17.02540286 48.06171666 15 52 C13.54176788 52.0270043 12.08339325 52.04639787 10.625 52.0625 C9.40683594 52.07990234 9.40683594 52.07990234 8.1640625 52.09765625 C6 52 6 52 4 51 C4.58651729 46.11987537 6.10298713 41.99901162 8.125 37.5625 C8.43268311 36.87381836 8.74036621 36.18513672 9.05737305 35.47558594 C12.89649613 26.92255354 16.78979916 18.37735954 21 10 C20.36908447 10.00523682 19.73816895 10.01047363 19.08813477 10.01586914 C16.24626653 10.03657826 13.40441412 10.04964066 10.5625 10.0625 C9.07266602 10.07506836 9.07266602 10.07506836 7.55273438 10.08789062 C6.60849609 10.09111328 5.66425781 10.09433594 4.69140625 10.09765625 C3.81685791 10.10289307 2.94230957 10.10812988 2.04125977 10.11352539 C0 10 0 10 -1 9 C-1.23728814 2.47457627 -1.23728814 2.47457627 0 0 Z " fill="#396A9B" transform="translate(348,294)"/>
<path d="M0 0 C2.61060006 3.2000904 2.32366362 5.35889835 1.9375 9.375 C-2.0625 9.375 -2.0625 9.375 -4.4375 8.3125 C-7.77092162 7.12199228 -9.70049156 7.32904182 -13.0625 8.375 C-15.1908275 11.50321291 -15.30620269 14.15540363 -15.25 17.875 C-15.24355469 18.8134375 -15.23710937 19.751875 -15.23046875 20.71875 C-15.08107816 23.08120585 -14.72960889 25.11216665 -14.0625 27.375 C-12.45870659 27.42916188 -10.85438594 27.46786638 -9.25 27.5 C-8.35667969 27.52320313 -7.46335938 27.54640625 -6.54296875 27.5703125 C-3.80847286 27.55785827 -3.80847286 27.55785827 -1.0625 25.375 C-0.0725 25.375 0.9175 25.375 1.9375 25.375 C2.22983535 28.29835346 2.42692356 30.52546727 1.9375 33.375 C-0.95654869 36.59060966 -2.6617471 37.20851707 -6.921875 37.71484375 C-17.63339842 38.04791351 -17.63339842 38.04791351 -22.0625 34.375 C-26.38576892 28.46076812 -27.88439173 22.61911054 -27.546875 15.34375 C-26.49466782 8.89473823 -24.00951559 4.00413549 -19 -0.1875 C-12.58537305 -3.32657276 -6.3707556 -3.38040093 0 0 Z " fill="#3A699A" transform="translate(202.0625,308.625)"/>
<path d="M0 0 C0.73192566 -0.00175232 1.46385132 -0.00350464 2.21795654 -0.00531006 C4.64565378 -0.00972278 7.07327854 -0.0067914 9.50097656 -0.00341797 C11.18768325 -0.00409147 12.87438984 -0.00506187 14.56109619 -0.00631714 C18.10193808 -0.00779356 21.64275478 -0.0056424 25.18359375 -0.00097656 C29.71405941 0.00470325 34.2444656 0.00145249 38.77492905 -0.00454903 C42.26141809 -0.00817103 45.74789316 -0.00700821 49.23438263 -0.00442123 C50.90407569 -0.00375559 52.57377004 -0.00456768 54.24346161 -0.00690079 C56.58421662 -0.00945226 58.92487699 -0.00555088 61.265625 0 C61.95156738 -0.00202423 62.63750977 -0.00404846 63.34423828 -0.00613403 C67.29439416 0.0111398 71.01502155 0.37368506 74.89160156 1.12939453 C74.89160156 1.45939453 74.89160156 1.78939453 74.89160156 2.12939453 C47.50160156 2.12939453 20.11160156 2.12939453 -8.10839844 2.12939453 C-7.77839844 44.03939453 -7.44839844 85.94939453 -7.10839844 129.12939453 C3.45160156 129.12939453 14.01160156 129.12939453 24.89160156 129.12939453 C24.89160156 96.12939453 24.89160156 63.12939453 24.89160156 29.12939453 C25.55160156 29.12939453 26.21160156 29.12939453 26.89160156 29.12939453 C26.89160156 62.78939453 26.89160156 96.44939453 26.89160156 131.12939453 C15.01160156 131.12939453 3.13160156 131.12939453 -9.10839844 131.12939453 C-9.10839844 88.22939453 -9.10839844 45.32939453 -9.10839844 1.12939453 C-6.17321021 -0.33819958 -3.21691126 -0.00938242 0 0 Z " fill="#6086AA" transform="translate(78.1083984375,82.87060546875)"/>
<path d="M0 0 C1.54971773 3.09943545 1.16291442 6.37943598 1.16796875 9.78125 C1.17129715 10.55053833 1.17462555 11.31982666 1.17805481 12.11242676 C1.18312004 13.73982138 1.18546326 15.3672264 1.18530273 16.99462891 C1.1874913 19.49008175 1.20565654 21.98509405 1.22460938 24.48046875 C1.22754291 26.05989432 1.22952797 27.63932199 1.23046875 29.21875 C1.23765427 29.9677356 1.24483978 30.71672119 1.25224304 31.48840332 C1.2288276 36.7711724 1.2288276 36.7711724 -1 39 C-3.97 38.67 -6.94 38.34 -10 38 C-10 25.79 -10 13.58 -10 1 C-6.78548731 -0.60725635 -3.56387464 -0.05748185 0 0 Z " fill="#396B9E" transform="translate(125,307)"/>
<path d="M0 0 C0.33 0 0.66 0 1 0 C1 34.32 1 68.64 1 104 C-10.22 104 -21.44 104 -33 104 C-33.25277029 75.94249732 -32.27464571 48.02529919 -31 20 C-30.67 20 -30.34 20 -30 20 C-30 46.4 -30 72.8 -30 100 C-30.66 100 -31.32 100 -32 100 C-32 100.99 -32 101.98 -32 103 C-21.44 103 -10.88 103 0 103 C0 69.01 0 35.02 0 0 Z " fill="#2B6094" transform="translate(176,109)"/>
<path d="M0 0 C0.33 0.66 0.66 1.32 1 2 C1.79032938 1.83748025 2.58065876 1.6749605 3.39493752 1.50751591 C7.85316727 0.87989224 12.18517913 0.86520751 16.68099976 0.87974548 C18.13426711 0.87846385 18.13426711 0.87846385 19.61689341 0.87715632 C22.8596861 0.87551067 26.10242693 0.88100794 29.34521484 0.88647461 C31.67119343 0.8867567 33.9971721 0.88659831 36.32315063 0.8860321 C42.63665136 0.885745 48.95013312 0.89162773 55.26362944 0.89860606 C61.1934877 0.90422102 67.12334524 0.9052292 73.0532058 0.90625793 C84.79637906 0.90844512 96.53954536 0.91509617 108.28271484 0.92456055 C119.68831345 0.93374329 131.09391016 0.94081991 142.49951172 0.94506836 C143.55454364 0.94546244 143.55454364 0.94546244 144.63088934 0.94586449 C148.15950634 0.94716955 151.68812335 0.94843326 155.21674037 0.94967639 C184.47783144 0.96003862 213.73891563 0.97772235 243 1 C243 1.33 243 1.66 243 2 C165.45 2 87.9 2 8 2 C8 2.66 8 3.32 8 4 C4.37 4 0.74 4 -3 4 C-2.67 3.34 -2.34 2.68 -2 2 C-1.34 2 -0.68 2 0 2 C0 1.34 0 0.68 0 0 Z " fill="#2C5F90" transform="translate(125,0)"/>
<path d="M0 0 C0.66 0.33 1.32 0.66 2 1 C2 1.66 2 2.32 2 3 C2.66 3 3.32 3 4 3 C4 4.32 4 5.64 4 7 C3.38511719 7.02578125 2.77023438 7.0515625 2.13671875 7.078125 C-2.87642451 7.29575465 -2.87642451 7.29575465 -7 9.8125 C-8.1884777 12.23607308 -8.1884777 12.23607308 -9 16 C-4.38 16 0.24 16 5 16 C5 16.33 5 16.66 5 17 C3.86820313 17.04898437 2.73640625 17.09796875 1.5703125 17.1484375 C0.08851661 17.22346514 -1.393253 17.29901297 -2.875 17.375 C-3.62136719 17.4059375 -4.36773437 17.436875 -5.13671875 17.46875 C-9.53473188 17.55643831 -9.53473188 17.55643831 -13 20 C-13.69748583 21.31747324 -14.36959957 22.64914193 -15 24 C-15.19534474 21.58373582 -15.38153404 19.16734771 -15.5625 16.75 C-15.61857422 16.06808594 -15.67464844 15.38617188 -15.73242188 14.68359375 C-16.32497903 6.54580886 -16.32497903 6.54580886 -13.125 2.8125 C-9.02784739 -0.68213016 -5.11065404 -0.16224299 0 0 Z " fill="#356698" transform="translate(228,307)"/>
<path d="M0 0 C1.54971773 3.09943545 1.16291442 6.37943598 1.16796875 9.78125 C1.17129715 10.55053833 1.17462555 11.31982666 1.17805481 12.11242676 C1.18312004 13.73982138 1.18546326 15.3672264 1.18530273 16.99462891 C1.1874913 19.49008175 1.20565654 21.98509405 1.22460938 24.48046875 C1.22754291 26.05989432 1.22952797 27.63932199 1.23046875 29.21875 C1.23765427 29.9677356 1.24483978 30.71672119 1.25224304 31.48840332 C1.2288276 36.7711724 1.2288276 36.7711724 -1 39 C-4.125 39.125 -4.125 39.125 -7 39 C-7 38.34 -7 37.68 -7 37 C-5.68 37 -4.36 37 -3 37 C-3.33 25.12 -3.66 13.24 -4 1 C-2 0 -2 0 0 0 Z " fill="#4976A3" transform="translate(125,307)"/>
<path d="M0 0 C1.12148438 0.00322266 2.24296875 0.00644531 3.3984375 0.00976562 C4.5740625 0.01814453 5.7496875 0.02652344 6.9609375 0.03515625 C8.14429688 0.03966797 9.32765625 0.04417969 10.546875 0.04882812 C13.47661257 0.06064158 16.40625022 0.07711367 19.3359375 0.09765625 C19.3359375 2.73765625 19.3359375 5.37765625 19.3359375 8.09765625 C19.0059375 8.09765625 18.6759375 8.09765625 18.3359375 8.09765625 C18.3359375 6.44765625 18.3359375 4.79765625 18.3359375 3.09765625 C10.4159375 3.42765625 2.4959375 3.75765625 -5.6640625 4.09765625 C-5.7053125 7.35640625 -5.7465625 10.61515625 -5.7890625 13.97265625 C-5.80727051 14.99858887 -5.82547852 16.02452148 -5.84423828 17.08154297 C-5.8492334 17.88865723 -5.85422852 18.69577148 -5.859375 19.52734375 C-5.86984863 20.35476074 -5.88032227 21.18217773 -5.89111328 22.03466797 C-5.85708507 24.32163782 -5.85708507 24.32163782 -3.6640625 26.09765625 C-3.3340625 25.43765625 -3.0040625 24.77765625 -2.6640625 24.09765625 C-2.0040625 24.09765625 -1.3440625 24.09765625 -0.6640625 24.09765625 C-0.6640625 25.08765625 -0.6640625 26.07765625 -0.6640625 27.09765625 C0.9859375 27.09765625 2.6359375 27.09765625 4.3359375 27.09765625 C4.3359375 27.42765625 4.3359375 27.75765625 4.3359375 28.09765625 C2.52412345 28.29167258 0.71145218 28.4777 -1.1015625 28.66015625 C-2.11089844 28.76457031 -3.12023437 28.86898438 -4.16015625 28.9765625 C-4.98644531 29.01652344 -5.81273437 29.05648438 -6.6640625 29.09765625 C-7.6640625 28.09765625 -7.6640625 28.09765625 -7.77758789 25.50561523 C-7.77235107 24.37969971 -7.76711426 23.25378418 -7.76171875 22.09375 C-7.75849609 20.87880859 -7.75527344 19.66386719 -7.75195312 18.41210938 C-7.74357422 17.13271484 -7.73519531 15.85332031 -7.7265625 14.53515625 C-7.72205078 13.25189453 -7.71753906 11.96863281 -7.71289062 10.64648438 C-7.70105795 7.46349603 -7.68457318 4.28059863 -7.6640625 1.09765625 C-5.00228029 -0.23323485 -2.97666854 -0.01503368 0 0 Z " fill="#43709F" transform="translate(397.6640625,293.90234375)"/>
<path d="M0 0 C4.5206339 -0.07406517 9.040916 -0.12856045 13.56201172 -0.16479492 C15.10048574 -0.17989711 16.63891661 -0.20038046 18.17724609 -0.22631836 C20.38650141 -0.26264074 22.59518848 -0.27971119 24.8046875 -0.29296875 C25.83914505 -0.31619453 25.83914505 -0.31619453 26.89450073 -0.33988953 C28.83544922 -0.34057617 28.83544922 -0.34057617 32 0 C34.56687367 3.8503105 33.83288724 5.58569763 33 10 C32.34 10 31.68 10 31 10 C31 7.69 31 5.38 31 3 C21.43 3 11.86 3 2 3 C1.67 4.32 1.34 5.64 1 7 C1.020625 6.21625 1.04125 5.4325 1.0625 4.625 C1.18684063 2.01885039 1.18684063 2.01885039 0 0 Z " fill="#4975A1" transform="translate(348,294)"/>
<path d="M0 0 C3.5 0.1875 3.5 0.1875 5.5 1.1875 C5.79296875 7.2421875 5.79296875 7.2421875 5.5 9.1875 C2.5 11.1875 2.5 11.1875 -1.125 10.875 C-4.5 10.1875 -4.5 10.1875 -5.5 9.1875 C-5.6875 5.75 -5.6875 5.75 -5.5 2.1875 C-3.5 0.1875 -3.5 0.1875 0 0 Z " fill="#346598" transform="translate(120.5,291.8125)"/>
<path d="M0 0 C0.66 0.33 1.32 0.66 2 1 C2 1.33 2 1.66 2 2 C6.29 2 10.58 2 15 2 C15.33 2.66 15.66 3.32 16 4 C18.52733235 4.65555119 18.52733235 4.65555119 21 5 C21 5.33 21 5.66 21 6 C17.89610484 6.33589425 14.79184301 6.66827237 11.6875 7 C10.80642578 7.09539062 9.92535156 7.19078125 9.01757812 7.2890625 C7.74624023 7.42441406 7.74624023 7.42441406 6.44921875 7.5625 C5.27879028 7.68818359 5.27879028 7.68818359 4.0847168 7.81640625 C2 8 2 8 -1 8 C-1.04241723 5.66705225 -1.04092937 3.33297433 -1 1 C-0.67 0.67 -0.34 0.34 0 0 Z " fill="#346496" transform="translate(348,295)"/>
<path d="M0 0 C0 0.99 0 1.98 0 3 C-0.99 3 -1.98 3 -3 3 C-3 3.66 -3 4.32 -3 5 C-2.34 5 -1.68 5 -1 5 C-1 5.66 -1 6.32 -1 7 C-4.63 7.33 -8.26 7.66 -12 8 C-12 7.34 -12 6.68 -12 6 C-12.66 5.67 -13.32 5.34 -14 5 C-13.34 3.35 -12.68 1.7 -12 0 C-10.56359829 -0.19573608 -9.12580496 -0.38127816 -7.6875 -0.5625 C-6.88699219 -0.66691406 -6.08648437 -0.77132813 -5.26171875 -0.87890625 C-3 -1 -3 -1 0 0 Z " fill="#316397" transform="translate(330,295)"/>
<path d="M0 0 C0.33 0 0.66 0 1 0 C1 2.31 1 4.62 1 7 C-1.54982433 8.27491216 -3.16465424 8.02596616 -6.0078125 7.87890625 C-6.99394531 7.83056641 -7.98007813 7.78222656 -8.99609375 7.73242188 C-10.54490234 7.64831055 -10.54490234 7.64831055 -12.125 7.5625 C-13.16527344 7.51029297 -14.20554688 7.45808594 -15.27734375 7.40429688 C-17.85185116 7.27439054 -20.42599296 7.13941748 -23 7 C-21.36292167 5.01489942 -20.49903853 4.08152696 -17.9152832 3.65942383 C-17.13499756 3.67513428 -16.35471191 3.69084473 -15.55078125 3.70703125 C-14.70322266 3.71669922 -13.85566406 3.72636719 -12.98242188 3.73632812 C-12.10134766 3.76146484 -11.22027344 3.78660156 -10.3125 3.8125 C-9.41982422 3.82603516 -8.52714844 3.83957031 -7.60742188 3.85351562 C-5.40433834 3.88885921 -3.20247418 3.93819507 -1 4 C-0.67 2.68 -0.34 1.36 0 0 Z " fill="#2F6195" transform="translate(242,321)"/>
<path d="M0 0 C5.65394631 -0.34615998 9.03006806 0.56574762 14 3 C13.484375 3.391875 12.96875 3.78375 12.4375 4.1875 C11.7259375 5.0846875 11.7259375 5.0846875 11 6 C11.23043864 8.65466049 11.23043864 8.65466049 12 11 C11.34 11 10.68 11 10 11 C9.67 11.66 9.34 12.32 9 13 C8.67 12.01 8.34 11.02 8 10 C7.34 9.34 6.68 8.68 6 8 C6.99 8 7.98 8 9 8 C9 6.68 9 5.36 9 4 C8.34 4 7.68 4 7 4 C7 3.34 7 2.68 7 2 C4.69 1.67 2.38 1.34 0 1 C0 0.67 0 0.34 0 0 Z " fill="#4874A0" transform="translate(223,306)"/>
<path d="M0 0 C0.99 0.66 1.98 1.32 3 2 C3.1875 5.625 3.1875 5.625 3 9 C-1.19469571 8.40075776 -5.00999834 7.42500059 -9 6 C-5.94736336 5.01879536 -4.05263664 5.01879536 -1 6 C-0.67 4.02 -0.34 2.04 0 0 Z " fill="#456F9B" transform="translate(103,296)"/>
<path d="M0 0 C0 0.66 0 1.32 0 2 C0.66 2 1.32 2 2 2 C2 3.32 2 4.64 2 6 C-0.31 5.67 -2.62 5.34 -5 5 C-5.33 4.01 -5.66 3.02 -6 2 C-6.99 1.34 -7.98 0.68 -9 0 C-5.67465243 -1.10844919 -3.37817425 -0.84454356 0 0 Z " fill="#2D6298" transform="translate(230,308)"/>
<path d="M0 0 C1 2 1 2 1 5 C3.97 5.495 3.97 5.495 7 6 C7 6.33 7 6.66 7 7 C6.071875 7.28875 5.14375 7.5775 4.1875 7.875 C0.90208333 8.8875 0.90208333 8.8875 -2 11 C-2.66 10.34 -3.32 9.68 -4 9 C-3.01 7.02 -2.02 5.04 -1 3 C-1.99 3.33 -2.98 3.66 -4 4 C-4 3.34 -4 2.68 -4 2 C-2.68 1.34 -1.36 0.68 0 0 Z " fill="#44719D" transform="translate(147,309)"/>
<path d="M0 0 C2 3 2 3 1.9375 6.3125 C0.78697578 10.83789525 -0.82116176 12.65814442 -4 16 C-5 14 -5 14 -4.00390625 10.7421875 C-3.53110016 9.4502948 -3.05028031 8.16131362 -2.5625 6.875 C-2.31951172 6.21628906 -2.07652344 5.55757813 -1.82617188 4.87890625 C-1.22421679 3.25008662 -0.61297588 1.62470425 0 0 Z " fill="#48729F" transform="translate(10,86)"/>
<path d="M0 0 C2.37611155 0.28416601 4.75060496 0.57708901 7.125 0.875 C8.12273437 0.99294922 8.12273437 0.99294922 9.140625 1.11328125 C13.30378644 1.64388026 17.06671292 2.54186554 21 4 C20.67 4.66 20.34 5.32 20 6 C13.4 4.68 6.8 3.36 0 2 C0 1.34 0 0.68 0 0 Z " fill="#4C7199" transform="translate(377,21)"/>
<path d="M0 0 C0.33 0 0.66 0 1 0 C1.33 5.61 1.66 11.22 2 17 C1.01 16.67 0.02 16.34 -1 16 C-1.02701408 13.89590361 -1.04640223 11.79170822 -1.0625 9.6875 C-1.07410156 8.51574219 -1.08570313 7.34398437 -1.09765625 6.13671875 C-1 3 -1 3 0 0 Z " fill="#2A629A" transform="translate(184,318)"/>
<path d="M0 0 C0.58265625 0.20496094 1.1653125 0.40992188 1.765625 0.62109375 C8.50503996 2.83577571 14.92947835 3.64768878 22 4 C22 4.33 22 4.66 22 5 C14.31604457 5.2137731 7.43659188 5.01670288 0 3 C0 2.01 0 1.02 0 0 Z " fill="#446E97" transform="translate(378,181)"/>
<path d="M0 0 C-3.79541663 2.21399303 -7.75629421 3.00980198 -12 4 C-12.33 3.01 -12.66 2.02 -13 1 C-8.31506124 -1.48887372 -5.0555786 -0.85687773 0 0 Z " fill="#4876A3" transform="translate(161,307)"/>
<path d="M0 0 C2 2 2 2 2.125 4.625 C2.08375 5.40875 2.0425 6.1925 2 7 C1.01 7.33 0.02 7.66 -1 8 C-1.73323796 10.01508358 -1.73323796 10.01508358 -2 12 C-3.15957207 8.52128379 -2.77456651 7.65780355 -1.5625 4.3125 C-1.13130859 3.10013672 -1.13130859 3.10013672 -0.69140625 1.86328125 C-0.46324219 1.24839844 -0.23507813 0.63351562 0 0 Z " fill="#4975A0" transform="translate(211,314)"/>
<path d="M0 0 C1.43861294 0.08746284 2.87597508 0.19565348 4.3125 0.3125 C5.11300781 0.37050781 5.91351563 0.42851562 6.73828125 0.48828125 C9.36272334 1.08206694 10.30820672 1.95780294 12 4 C10.02 4 8.04 4 6 4 C6 3.67 6 3.34 6 3 C3.03 2.505 3.03 2.505 0 2 C0 1.34 0 0.68 0 0 Z M4 4 C4.66 4 5.32 4 6 4 C6 4.66 6 5.32 6 6 C5.34 6 4.68 6 4 6 C4 5.34 4 4.68 4 4 Z " fill="#4C75A4" transform="translate(190,306)"/>
<path d="M0 0 C0.91007812 0.00902344 1.82015625 0.01804687 2.7578125 0.02734375 C3.45648438 0.03894531 4.15515625 0.05054688 4.875 0.0625 C2.02021674 1.96568884 0.45558692 2.5244099 -2.8125 3.1875 C-3.62074219 3.35507812 -4.42898438 3.52265625 -5.26171875 3.6953125 C-5.87660156 3.81648438 -6.49148438 3.93765625 -7.125 4.0625 C-7.125 3.0725 -7.125 2.0825 -7.125 1.0625 C-4.60024538 -0.19987731 -2.81299534 -0.03606404 0 0 Z " fill="#406D9A" transform="translate(402.125,271.9375)"/>
<path d="M0 0 C0.99 0 1.98 0 3 0 C2.00956295 4.83628305 1.04301154 9.47618873 -1 14 C-1.33 14 -1.66 14 -2 14 C-2.25328119 8.93437617 -1.33583899 4.84241633 0 0 Z " fill="#47719E" transform="translate(491,180)"/>
<path d="M0 0 C0.66 0.66 1.32 1.32 2 2 C1.9375 4.4375 1.9375 4.4375 1 7 C-1.375 8.875 -1.375 8.875 -4 10 C-4.99 9.67 -5.98 9.34 -7 9 C-5.35 8.34 -3.7 7.68 -2 7 C-2 6.34 -2 5.68 -2 5 C-1.34 5 -0.68 5 0 5 C0 3.35 0 1.7 0 0 Z " fill="#587FA6" transform="translate(240,336)"/>
<path d="M0 0 C-0.99 0.66 -1.98 1.32 -3 2 C-5.34406932 1.37212429 -7.67793475 0.70491267 -10 0 C-10.99 0.33 -11.98 0.66 -13 1 C-13 0.34 -13 -0.32 -13 -1 C-7.48845808 -3.09438593 -5.01697937 -3.18149912 0 0 Z " fill="#3F6A9E" transform="translate(78,241)"/>
<path d="M0 0 C2 1 2 1 3.125 4.0625 C3.41375 5.031875 3.7025 6.00125 4 7 C3.01 7.33 2.02 7.66 1 8 C0.01 6.68 -0.98 5.36 -2 4 C-1.34 2.68 -0.68 1.36 0 0 Z " fill="#2F6299" transform="translate(361,326)"/>
<path d="M0 0 C1.65 0.33 3.3 0.66 5 1 C2.42215154 3.64752004 0.08351902 5.94432065 -3 8 C-3 5 -3 5 -2 3 C-0.68 3 0.64 3 2 3 C2 2.34 2 1.68 2 1 C1.34 0.67 0.68 0.34 0 0 Z " fill="#406A95" transform="translate(446,245)"/>
<path d="M0 0 C0 0.99 0 1.98 0 3 C-2.25 5.25 -2.25 5.25 -5 7 C-6.32 6.67 -7.64 6.34 -9 6 C-6.03 4.02 -3.06 2.04 0 0 Z " fill="#3E6C9B" transform="translate(441,228)"/>
<path d="M0 0 C0.99 0.33 1.98 0.66 3 1 C4.25 3.9375 4.25 3.9375 5 7 C4.67 7.66 4.34 8.32 4 9 C3.34 8.67 2.68 8.34 2 8 C1.375 5.9375 1.375 5.9375 1 4 C0.01 4.495 0.01 4.495 -1 5 C-0.67 3.35 -0.34 1.7 0 0 Z " fill="#3F6E9C" transform="translate(480,71)"/>
<path d="M0 0 C0.66 0.33 1.32 0.66 2 1 C1.34 5.29 0.68 9.58 0 14 C-0.33 14 -0.66 14 -1 14 C-1.33 11.69 -1.66 9.38 -2 7 C-1.34 7 -0.68 7 0 7 C0 4.69 0 2.38 0 0 Z " fill="#4E719F" transform="translate(340,318)"/>
<path d="M0 0 C0.66 0 1.32 0 2 0 C2 0.99 2 1.98 2 3 C3.65 3 5.3 3 7 3 C7 3.33 7 3.66 7 4 C3.37 4.33 -0.26 4.66 -4 5 C-4 4.34 -4 3.68 -4 3 C-3.01 2.34 -2.02 1.68 -1 1 C-0.67 0.67 -0.34 0.34 0 0 Z " fill="#5179A0" transform="translate(395,318)"/>
<path d="M0 0 C0.33 0 0.66 0 1 0 C1 2.31 1 4.62 1 7 C0.01 7.495 0.01 7.495 -1 8 C-1.33 8.99 -1.66 9.98 -2 11 C-2.66 11 -3.32 11 -4 11 C-3.52269162 9.5410574 -3.04308958 8.08286504 -2.5625 6.625 C-2.29566406 5.81289063 -2.02882813 5.00078125 -1.75390625 4.1640625 C-1 2 -1 2 0 0 Z " fill="#47729D" transform="translate(368,306)"/>
<path d="M0 0 C1.32 0.33 2.64 0.66 4 1 C3.34 2.65 2.68 4.3 2 6 C0.68 5.34 -0.64 4.68 -2 4 C-1.34 2.68 -0.68 1.36 0 0 Z " fill="#336396" transform="translate(235,310)"/>
<path d="M0 0 C6.75 -0.125 6.75 -0.125 9 1 C9 3.64 9 6.28 9 9 C8.67 9 8.34 9 8 9 C7.67 7.35 7.34 5.7 7 4 C6.34 4 5.68 4 5 4 C5 3.01 5 2.02 5 1 C3.35 1 1.7 1 0 1 C0 0.67 0 0.34 0 0 Z " fill="#4B749D" transform="translate(117,292)"/>
<path d="M0 0 C4.20626034 1.50223584 5.73900021 4.28550034 8 8 C7.01 8 6.02 8 5 8 C2.58085776 5.36740403 1.13523734 3.40571201 0 0 Z " fill="#3E6A9A" transform="translate(344,198)"/>
<path d="M0 0 C-1.26941497 3.91402949 -2.51167694 5.79072873 -6 8 C-5.62403791 5.21788056 -5.32681541 3.4120716 -3.5625 1.1875 C-2 0 -2 0 0 0 Z " fill="#4E79A2" transform="translate(45,38)"/>
<path d="M0 0 C3.43595166 1.52708963 6.11912454 3.59927045 9 6 C8.67 6.99 8.34 7.98 8 9 C6.66368764 7.6905332 5.33102075 6.37734515 4 5.0625 C3.2575 4.33160156 2.515 3.60070312 1.75 2.84765625 C0 1 0 1 0 0 Z " fill="#49719B" transform="translate(33,231)"/>
<path d="M0 0 C4.41889613 1.35021826 6.34345343 3.26115668 9 7 C6 7 6 7 4.39453125 5.46875 C3.87246094 4.8190625 3.35039062 4.169375 2.8125 3.5 C2.28269531 2.8503125 1.75289063 2.200625 1.20703125 1.53125 C0.80871094 1.0259375 0.41039062 0.520625 0 0 Z " fill="#4A6F97" transform="translate(439,51)"/>
<path d="M0 0 C0.33 0.66 0.66 1.32 1 2 C-1.17508418 6.69360269 -1.17508418 6.69360269 -4.1875 7.8125 C-4.785625 7.874375 -5.38375 7.93625 -6 8 C-2.25 2.25 -2.25 2.25 0 0 Z " fill="#46719D" transform="translate(451,216)"/>
<path d="M0 0 C0.33 0 0.66 0 1 0 C1.05399736 1.45792884 1.09279177 2.91642712 1.125 4.375 C1.14820313 5.18710938 1.17140625 5.99921875 1.1953125 6.8359375 C1 9 1 9 -1 11 C-1.33 8.03 -1.66 5.06 -2 2 C-1.34 2 -0.68 2 0 2 C0 1.34 0 0.68 0 0 Z " fill="#51779F" transform="translate(21,123)"/>
<path d="M0 0 C0 0.66 0 1.32 0 2 C2.97 2 5.94 2 9 2 C9 2.33 9 2.66 9 3 C7.04196493 3.05389087 5.08351091 3.09274217 3.125 3.125 C2.03445312 3.14820313 0.94390625 3.17140625 -0.1796875 3.1953125 C-3 3 -3 3 -5 1 C-2 0 -2 0 0 0 Z " fill="#426E96" transform="translate(223,343)"/>
<path d="M0 0 C0.66 0 1.32 0 2 0 C1.01 2.97 0.02 5.94 -1 9 C-1.66 7.68 -2.32 6.36 -3 5 C-1.75 2.25 -1.75 2.25 0 0 Z " fill="#4970A1" transform="translate(375,312)"/>
<path d="M0 0 C1.98 0 3.96 0 6 0 C6.33 0.66 6.66 1.32 7 2 C4.69 2.66 2.38 3.32 0 4 C0 2.68 0 1.36 0 0 Z " fill="#3A6A9B" transform="translate(137,307)"/>
<path d="M0 0 C2.97 0 5.94 0 9 0 C6.64031256 2.09749995 5.45383006 2.96905704 2.25 3.1875 C1.13625 3.0946875 1.13625 3.0946875 0 3 C0 2.01 0 1.02 0 0 Z " fill="#3F6C99" transform="translate(410,267)"/>
<path d="M0 0 C0.66 0 1.32 0 2 0 C2 0.66 2 1.32 2 2 C2.66 2 3.32 2 4 2 C4 2.99 4 3.98 4 5 C4.66 5.33 5.32 5.66 6 6 C3 6 3 6 0.8125 4 C0.214375 3.34 -0.38375 2.68 -1 2 C-0.67 1.34 -0.34 0.68 0 0 Z " fill="#3E6C9D" transform="translate(48,243)"/>
<path d="M0 0 C3 1 3 1 4.25 3.3125 C5.04631835 6.16597407 4.8214856 7.24802325 4 10 C3.32845067 8.71086513 2.66291141 7.41859796 2 6.125 C1.62875 5.40570313 1.2575 4.68640625 0.875 3.9453125 C0 2 0 2 0 0 Z " fill="#4F78A2" transform="translate(14,201)"/>
<path d="M0 0 C0.99 0.33 1.98 0.66 3 1 C3 1.66 3 2.32 3 3 C3.66 3 4.32 3 5 3 C4.67 4.65 4.34 6.3 4 8 C1.84622436 5.37801226 0.59927826 3.35595828 0 0 Z " fill="#436E9D" transform="translate(465,84)"/>
<path d="M0 0 C0 3 0 3 -1.75 5.25 C-2.86375 6.11625 -2.86375 6.11625 -4 7 C-5.32 6.67 -6.64 6.34 -8 6 C-5.36 4.02 -2.72 2.04 0 0 Z " fill="#3F6A95" transform="translate(58,26)"/>
<path d="M0 0 C1.98 1.65 3.96 3.3 6 5 C5.67 5.66 5.34 6.32 5 7 C3.35 6.67 1.7 6.34 0 6 C0.66 5.67 1.32 5.34 2 5 C2 4.34 2 3.68 2 3 C1.34 3 0.68 3 0 3 C0 2.01 0 1.02 0 0 Z " fill="#4E749C" transform="translate(101,317)"/>
<path d="M0 0 C3.3 0 6.6 0 10 0 C10 0.99 10 1.98 10 3 C8.68 3.33 7.36 3.66 6 4 C6 3.34 6 2.68 6 2 C3.03 1.505 3.03 1.505 0 1 C0 0.67 0 0.34 0 0 Z " fill="#46709C" transform="translate(400,314)"/>
<path d="M0 0 C0.33 0.99 0.66 1.98 1 3 C-1.3125 4.5625 -1.3125 4.5625 -4 6 C-4.99 5.67 -5.98 5.34 -7 5 C-4.69 3.35 -2.38 1.7 0 0 Z " fill="#406D98" transform="translate(431,235)"/>
<path d="M0 0 C3.37503669 1.1858237 5.64722731 2.27573689 8 5 C7.01 5.495 7.01 5.495 6 6 C6 5.34 6 4.68 6 4 C5.01 4.33 4.02 4.66 3 5 C3 4.34 3 3.68 3 3 C2.01 2.67 1.02 2.34 0 2 C0 1.34 0 0.68 0 0 Z " fill="#3E6997" transform="translate(429,19)"/>
</svg>
