<?xml version="1.0" encoding="UTF-8"?>
<svg version="1.1" xmlns="http://www.w3.org/2000/svg" width="1201" height="751">
<path d="M0 0 C396.33 0 792.66 0 1201 0 C1201 247.83 1201 495.66 1201 751 C804.67 751 408.34 751 0 751 C0 503.17 0 255.34 0 0 Z " fill="#094271" transform="translate(0,0)"/>
<path d="M0 0 C23 0 23 0 27.66796875 4.14453125 C29.03295898 6.85522461 29.03295898 6.85522461 30.1875 9.8125 C31.17847543 11.8534199 32.17333951 13.89245575 33.171875 15.9296875 C33.63916016 16.95674805 34.10644531 17.98380859 34.58789062 19.04199219 C36.67773006 23.41967107 39.27051461 27.39490702 41.9375 31.4375 C42.92393464 32.97832174 43.90695309 34.52133532 44.88671875 36.06640625 C45.3873584 36.85547363 45.88799805 37.64454102 46.40380859 38.45751953 C51.17560897 46.05824286 55.78779897 53.75912669 60.44042969 61.43310547 C63.60230316 66.63722847 66.79861157 71.82011375 70 77 C74.2525733 73.31911698 76.70876997 68.73759404 79.5 63.9375 C80.57500914 62.11741708 81.65187749 60.29843118 82.73046875 58.48046875 C83.27622559 57.56056152 83.82198242 56.6406543 84.38427734 55.69287109 C86.7971604 51.67139933 89.29593003 47.70715967 91.8125 43.75 C92.80082595 42.19403881 93.78910594 40.63804843 94.77734375 39.08203125 C95.29022949 38.27459473 95.80311523 37.4671582 96.33154297 36.63525391 C99.5314701 31.58111089 102.70303091 26.50921844 105.875 21.4375 C106.4935083 20.45040039 107.1120166 19.46330078 107.74926758 18.44628906 C108.34505615 17.49334961 108.94084473 16.54041016 109.5546875 15.55859375 C110.15635742 14.63804199 110.75802734 13.71749023 111.37792969 12.76904297 C113.08835442 10.05965171 113.08835442 10.05965171 114.00488281 7.06298828 C115.0703125 4.28515625 115.0703125 4.28515625 119 0 C126.26 0 133.52 0 141 0 C141 48.84 141 97.68 141 148 C133.41 148 125.82 148 118 148 C117.977183 137.59264197 117.95893372 127.18530122 117.94818783 116.77792358 C117.94302395 111.94259697 117.93604832 107.10728871 117.92456055 102.27197266 C117.82946594 61.20655873 117.82946594 61.20655873 119 41 C108.60161403 56.9222907 108.60161403 56.9222907 98.25 72.875 C97.81695557 73.54442627 97.38391113 74.21385254 96.93774414 74.90356445 C94.63902128 78.45895115 92.34504632 82.01734449 90.0546875 85.578125 C89.56452148 86.33883301 89.07435547 87.09954102 88.56933594 87.88330078 C87.64144614 89.32344347 86.71489851 90.76445232 85.79003906 92.20654297 C84.94833858 93.51204413 84.09846941 94.81232194 83.23974609 96.10668945 C82.4005029 97.38836157 81.59142669 98.69021204 80.81103516 100.00854492 C78.64867031 103.45857563 77.70231469 104.78000781 73.6953125 106.03515625 C72.51710938 106.04417969 71.33890625 106.05320312 70.125 106.0625 C68.95195313 106.11535156 67.77890625 106.16820312 66.5703125 106.22265625 C60.92789015 104.29040439 58.99327382 99.95051146 56 95 C55.43958008 94.11948975 54.87916016 93.23897949 54.30175781 92.33178711 C52.5313122 89.54802771 50.79471851 86.74518841 49.0625 83.9375 C42.85706554 73.93924217 36.55545971 64.00891716 30.19165039 54.11108398 C29.55606201 53.12180908 28.92047363 52.13253418 28.265625 51.11328125 C27.42692871 49.81064331 27.42692871 49.81064331 26.57128906 48.48168945 C25.00788361 46.01245135 23.50364616 43.50607694 22 41 C22 75.98 22 110.96 22 147 C14.74 147 7.48 147 0 147 C0 98.49 0 49.98 0 0 Z " fill="#FCFDFE" transform="translate(469,269)"/>
<path d="M0 0 C21 0 21 0 25.62109375 3.26953125 C27.11083984 5.43286133 27.11083984 5.43286133 28.4375 7.8125 C29.54290457 9.47920923 30.64837536 11.14587455 31.75390625 12.8125 C32.28773926 13.67488281 32.82157227 14.53726562 33.37158203 15.42578125 C35.98305059 19.5540158 38.94183026 23.40996596 41.875 27.3125 C43.04054667 28.90125599 44.20458953 30.49111622 45.3671875 32.08203125 C49.18142649 37.27010454 53.08567875 42.38723498 57 47.5 C63.86380703 56.47188218 70.59772987 65.53162584 77.2734375 74.64404297 C80.21843253 78.6625953 83.17101216 82.67555531 86.125 86.6875 C86.69766602 87.46536865 87.27033203 88.2432373 87.86035156 89.04467773 C93.5267279 96.73165359 99.25505555 104.3716397 105 112 C105.11592346 105.92045864 104.95274433 99.91825272 104.50219727 93.85351562 C103.84909954 84.18378441 103.87361901 74.53125596 103.90234375 64.84375 C103.90421432 62.9608972 103.90563519 61.0780439 103.90663147 59.19519043 C103.91040641 54.29631144 103.92019231 49.39746322 103.93133545 44.49859619 C103.94165905 39.47693294 103.94615228 34.45526461 103.95117188 29.43359375 C103.96182033 19.6223803 103.97937491 9.81119755 104 0 C111.26 0 118.52 0 126 0 C126 48.51 126 97.02 126 147 C105 147 105 147 100.125 142.75 C99.12502016 141.16347394 98.12977697 139.57288804 97.19384766 137.94775391 C94.71178035 133.89827886 91.69187596 130.20878198 88.8125 126.4375 C87.50495635 124.68735789 86.19897638 122.93604651 84.89453125 121.18359375 C81.32196603 116.40866333 77.67685523 111.69486853 74 107 C68.43871647 99.89509323 63.00763012 92.70103176 57.61206055 85.46972656 C53.40779126 79.84657776 49.13739577 74.28081299 44.8125 68.75 C40.29944436 62.97763473 35.83300178 57.17499964 31.4375 51.3125 C30.72267456 50.35972168 30.72267456 50.35972168 29.9934082 49.38769531 C26.9382411 45.29819571 23.95490553 41.16251611 21 37 C20.88703517 44.08683796 21.09106207 51.05447721 21.70510864 58.11480713 C23.26025243 76.02962716 23.23923395 93.8704193 23.1373291 111.83551025 C23.11640464 115.93328691 23.10763869 120.03109093 23.09765625 124.12890625 C23.07657735 132.08601711 23.04158281 140.04296987 23 148 C15.41 148 7.82 148 0 148 C0 99.16 0 50.32 0 0 Z " fill="#FCFCFD" transform="translate(301,269)"/>
<path d="M0 0 C0.91652344 0.30035156 1.83304688 0.60070312 2.77734375 0.91015625 C9.2723613 3.22194216 14.53202676 6.85759603 20 11 C20.94875 11.680625 21.8975 12.36125 22.875 13.0625 C25.462437 15.42163374 27.17494549 18.0258371 29 21 C28.31292969 21.67546875 27.62585938 22.3509375 26.91796875 23.046875 C25.56638672 24.38492187 25.56638672 24.38492187 24.1875 25.75 C23.29417969 26.63171875 22.40085937 27.5134375 21.48046875 28.421875 C19.44787848 30.53448851 17.68226182 32.60794665 16 35 C12.35504475 34.77909362 10.51508464 33.7321444 7.9375 31.3125 C3.22222869 27.04825464 -2.21862847 24.54200383 -8 22 C-8.75667969 21.65582031 -9.51335937 21.31164062 -10.29296875 20.95703125 C-21.26928391 16.81905757 -36.54325208 17.34573954 -47.328125 21.671875 C-61.70496556 28.81825773 -71.56269648 38.49055918 -76.875 53.9375 C-81.30506346 68.4894173 -78.96517038 82.46836174 -72.875 96.1875 C-65.82508341 109.25563806 -54.30727544 117.53630843 -40.5078125 122.2734375 C-27.7405977 125.9723502 -14.25084232 124.63914644 -2.3671875 118.6796875 C4.70575516 114.29206545 11.09546856 107.90678003 14 100 C14.33 97.03 14.66 94.06 15 91 C1.14 91 -12.72 91 -27 91 C-27 83.74 -27 76.48 -27 69 C-5.22 69 16.56 69 39 69 C43.78799556 83.36398669 38.54050163 100.40509636 32.25 113.375 C24.92543342 127.60582843 13.11239653 137.32859895 -1.8515625 143.00390625 C-23.00899636 149.69763532 -42.79044571 148.3446599 -62.33837891 138.19848633 C-79.97971107 128.62145086 -93.20803248 114.52177349 -99.375 95.25 C-99.93927319 93.17267568 -100.48304131 91.08960146 -101 89 C-101.22429688 88.195625 -101.44859375 87.39125 -101.6796875 86.5625 C-106.12811621 68.52503564 -102.2615452 49.19785841 -93.4375 33.16015625 C-82.55690419 15.20213585 -66.21359195 2.82378294 -46.0625 -2.9375 C-30.88885197 -5.93846871 -14.53575767 -5.25761448 0 0 Z " fill="#FCFDFD" transform="translate(859,272)"/>
<path d="M0 0 C35.31 0 70.62 0 107 0 C107 7.26 107 14.52 107 22 C92.81 22 78.62 22 64 22 C64 63.25 64 104.5 64 147 C56.74 147 49.48 147 42 147 C42 105.75 42 64.5 42 22 C28.14 22 14.28 22 0 22 C0 14.74 0 7.48 0 0 Z " fill="#FDFDFE" transform="translate(638,269)"/>
<path d="M0 0 C50.82 0 101.64 0 154 0 C154 2.31 154 4.62 154 7 C103.18 7 52.36 7 0 7 C0 4.69 0 2.38 0 0 Z " fill="#FAFBFD" transform="translate(745,459)"/>
<path d="M0 0 C50.82 0 101.64 0 154 0 C154 2.31 154 4.62 154 7 C103.18 7 52.36 7 0 7 C0 4.69 0 2.38 0 0 Z " fill="#FAFBFD" transform="translate(301,459)"/>
<path d="M0 0 C2.58550279 1.05540132 3.91715784 2.09568717 6 4 C4.63016497 7.16115776 4.0109362 7.9927092 1 10 C0.01 9.34 -0.98 8.68 -2 8 C-4.05709596 7.75944532 -4.05709596 7.75944532 -6.1875 7.875 C-7.445625 7.91625 -8.70375 7.9575 -10 8 C-9.95394318 9.96875841 -9.95394318 9.96875841 -9 12 C-6.35694913 13.18775014 -6.35694913 13.18775014 -3.1875 13.9375 C0.44825782 15.06285361 2.78892168 15.83582797 5.8125 18.1875 C7.55961418 22.32540201 7.48243782 25.76007421 6 30 C3.48964928 33.08518465 0.13988772 35.72918433 -3.8828125 36.23828125 C-9.82265344 36.43489619 -14.01975793 35.27238927 -19 32 C-19.66 31.34 -20.32 30.68 -21 30 C-20.875 28.0625 -20.875 28.0625 -20 26 C-17.9375 24.25 -17.9375 24.25 -16 23 C-15.505 23.639375 -15.01 24.27875 -14.5 24.9375 C-10.68526177 28.08465904 -6.90584939 28 -2 28 C-2 26.35 -2 24.7 -2 23 C-2.73605469 22.81824219 -3.47210938 22.63648438 -4.23046875 22.44921875 C-16.30664128 19.33844775 -16.30664128 19.33844775 -19.3125 15.1875 C-20.25846855 12.17760008 -20.44072275 10.14801964 -20 7 C-14.97361972 -1.05341971 -8.84775391 -0.82579037 0 0 Z " fill="#F4F7FA" transform="translate(490,447)"/>
<path d="M0 0 C3.00245308 1.80147185 5.40693472 3.81386943 7 7 C8.01843474 17.52382561 3.39555339 26.20724633 -2 35 C-4.64 35 -7.28 35 -10 35 C-8.35 31.37 -6.7 27.74 -5 24 C-6.216875 23.95875 -7.43375 23.9175 -8.6875 23.875 C-12.14061841 23.46478913 -13.71487229 22.74926467 -15.9375 20.0625 C-18.70815375 15.94849898 -19.47966204 13.98848522 -19 9 C-14.74723693 0.82160948 -8.91052055 -2.80044932 0 0 Z " fill="#F7F9FB" transform="translate(668,447)"/>
<path d="M0 0 C6.6 0 13.2 0 20 0 C20 2.31 20 4.62 20 7 C15.05 7 10.1 7 5 7 C5 8.65 5 10.3 5 12 C5.66386719 11.95359375 6.32773437 11.9071875 7.01171875 11.859375 C14.28473679 11.56208375 14.28473679 11.56208375 18.0625 13.875 C21.44551315 17.58540152 21.38759738 20.57380238 21.359375 25.44921875 C20.78039966 29.55868504 19.00085071 31.21349577 16 34 C11.80539328 36.09730336 6.55475815 35.55748342 2 35 C-0.65282698 33.60531523 -1.96511707 32.26098104 -4 30 C-2.68 28.35 -1.36 26.7 0 25 C0.56203125 25.32742188 1.1240625 25.65484375 1.703125 25.9921875 C4.26859964 27.11785494 5.96842277 27.2068111 8.75 27.125 C9.94882812 27.09792969 9.94882812 27.09792969 11.171875 27.0703125 C11.77515625 27.04710937 12.3784375 27.02390625 13 27 C13.16681109 24.08347826 13.16681109 24.08347826 13 21 C11.06498936 18.61995935 11.06498936 18.61995935 7.5625 18.8125 C4.03774253 18.83968083 4.03774253 18.83968083 1 20 C-1.49134543 17.44444464 -1.99188767 16.25090271 -2.109375 12.6171875 C-1.99078125 11.38226563 -1.8721875 10.14734375 -1.75 8.875 C-1.58757813 7.01488281 -1.58757813 7.01488281 -1.421875 5.1171875 C-1 2 -1 2 0 0 Z " fill="#F9FBFC" transform="translate(710,447)"/>
<path d="M0 0 C5.13656401 1.81290495 7.56523417 4.13046834 10 9 C10 11.31 10 13.62 10 16 C4.06 16 -1.88 16 -8 16 C-4.58226886 20.25778561 -4.58226886 20.25778561 -1 20.3125 C1.4495051 20.05734322 3.6523259 19.72236126 6 19 C6.99 20.65 7.98 22.3 9 24 C3.94715145 26.93983916 0.00416869 28.88950647 -6 28 C-9.81422234 25.94618797 -13.00010435 23.89453363 -15 20 C-16.16490039 15.35845891 -16.22854855 11.82008596 -14.9375 7.1875 C-11.23013411 1.08828514 -7.05292471 -0.88161559 0 0 Z " fill="#F2F5F8" transform="translate(592,455)"/>
<path d="M0 0 C3.60816598 1.48011034 4.53564998 3.43402399 6.21875 6.91015625 C6.67814261 10.38826073 6.59857472 13.78488216 6.46875 17.28515625 C6.45070313 18.21199219 6.43265625 19.13882812 6.4140625 20.09375 C6.36719197 22.3669706 6.30160525 24.63801032 6.21875 26.91015625 C3.57875 26.91015625 0.93875 26.91015625 -1.78125 26.91015625 C-1.84183594 25.62238281 -1.90242187 24.33460938 -1.96484375 23.0078125 C-2.04923247 21.32941466 -2.1338813 19.65102989 -2.21875 17.97265625 C-2.25806641 17.12251953 -2.29738281 16.27238281 -2.33789062 15.39648438 C-2.37978516 14.58759766 -2.42167969 13.77871094 -2.46484375 12.9453125 C-2.50150146 12.19644775 -2.53815918 11.44758301 -2.57592773 10.67602539 C-2.59896063 8.88554299 -2.59896063 8.88554299 -3.78125 7.91015625 C-6.28125 7.74348958 -6.28125 7.74348958 -8.78125 7.91015625 C-10.29546001 9.42436626 -9.99434856 10.83488393 -10.09765625 12.9453125 C-10.13955078 13.75419922 -10.18144531 14.56308594 -10.22460938 15.39648438 C-10.26392578 16.24662109 -10.30324219 17.09675781 -10.34375 17.97265625 C-10.38693359 18.82666016 -10.43011719 19.68066406 -10.47460938 20.56054688 C-10.58101702 22.67687662 -10.68166731 24.79349438 -10.78125 26.91015625 C-13.42125 26.91015625 -16.06125 26.91015625 -18.78125 26.91015625 C-18.78125 18.33015625 -18.78125 9.75015625 -18.78125 0.91015625 C-16.47125 0.91015625 -14.16125 0.91015625 -11.78125 0.91015625 C-11.45125 1.57015625 -11.12125 2.23015625 -10.78125 2.91015625 C-10.0696875 2.13671875 -10.0696875 2.13671875 -9.34375 1.34765625 C-5.99606003 -0.53031617 -3.74544395 -0.25012383 0 0 Z " fill="#F5F7FA" transform="translate(537.78125,455.08984375)"/>
<path d="M0 0 C0 9.24 0 18.48 0 28 C2.31 28 4.62 28 7 28 C7 30.31 7 32.62 7 35 C0.07 35 -6.86 35 -14 35 C-14 32.69 -14 30.38 -14 28 C-12.02 28 -10.04 28 -8 28 C-8 22.06 -8 16.12 -8 10 C-9.98 10.66 -11.96 11.32 -14 12 C-14.33 9.36 -14.66 6.72 -15 4 C-13.82289824 3.31514079 -12.63253055 2.65307172 -11.4375 2 C-10.44556641 1.443125 -10.44556641 1.443125 -9.43359375 0.875 C-7 0 -7 0 0 0 Z " fill="#F8FAFC" transform="translate(638,447)"/>
<path d="M0 0 C7.59 0 15.18 0 23 0 C21.875 10.125 21.875 10.125 19.49609375 15.56640625 C19.00302734 16.71044922 18.50996094 17.85449219 18.00195312 19.03320312 C17.48568359 20.19787109 16.96941406 21.36253906 16.4375 22.5625 C15.91736328 23.76197266 15.39722656 24.96144531 14.86132812 26.19726562 C13.58496742 29.13640817 12.29769308 32.07022916 11 35 C8.03 35 5.06 35 2 35 C5.83089346 25.5828469 9.71378335 16.22186005 14 7 C9.38 7 4.76 7 0 7 C0 4.69 0 2.38 0 0 Z " fill="#FAFBFC" transform="translate(679,447)"/>
<path d="M0 0 C2.35039822 1.10804487 3.96979564 2.3341913 6 4 C5.25 5.9375 5.25 5.9375 4 8 C1.9375 8.8125 1.9375 8.8125 0 9 C-0.33 8.67 -0.66 8.34 -1 8 C-3.95817107 7.74994614 -3.95817107 7.74994614 -7 8 C-9.32528287 10.32528287 -9.29511025 10.84665898 -9.3125 14 C-9.32925781 14.70125 -9.34601562 15.4025 -9.36328125 16.125 C-9.24339844 16.74375 -9.12351562 17.3625 -9 18 C-5.73036051 20.17975966 -4.78270322 20.36904422 -1 20 C1.25132517 19.08431094 1.25132517 19.08431094 3 18 C4.5625 19.8125 4.5625 19.8125 6 22 C5 25 5 25 2 26.75 C-2.41972349 28.45968728 -6.48605052 28.39737648 -11 27 C-14.84814437 23.97060975 -17.5671411 20.76828365 -18.3359375 15.8515625 C-18.43162704 10.39725865 -17.74398185 7.24992535 -14 3 C-9.820861 -0.58211914 -5.28271365 -0.88045227 0 0 Z " fill="#F3F6F9" transform="translate(567,455)"/>
<path d="M0 0 C2.64 0 5.28 0 8 0 C8 8.58 8 17.16 8 26 C5.36 26 2.72 26 0 26 C0 17.42 0 8.84 0 0 Z " fill="#F9FBFC" transform="translate(503,456)"/>
<path d="M0 0 C0.66 0.66 1.32 1.32 2 2 C1.625 5.625 1.625 5.625 1 9 C-4.3864279 10.31668238 -4.3864279 10.31668238 -6.9375 9 C-8.61956323 5.83376334 -7.81395841 3.38105802 -7 0 C-4.29393021 -1.35303489 -2.8671629 -0.7884698 0 0 Z " fill="#124A78" transform="translate(665,454)"/>
<path d="M0 0 C0.625 2.375 0.625 2.375 1 5 C-1 7 -1 7 -4 7.25 C-7 7 -7 7 -9 5 C-8.75 2.4375 -8.75 2.4375 -8 0 C-5.13822943 -1.43088528 -3.06624227 -0.59991697 0 0 Z " fill="#EBF0F5" transform="translate(511,443)"/>
<path d="M0 0 C5.52 -0.368 5.52 -0.368 7.875 1.4375 C9 3 9 3 9 4 C5.37 4 1.74 4 -2 4 C-1.34 2.68 -0.68 1.36 0 0 Z " fill="#124A78" transform="translate(586,462)"/>
</svg>
